<?xml version="1.0" standalone="no"?>
<!DOCTYPE svg PUBLIC "-//W3C//DTD SVG 20010904//EN"
 "http://www.w3.org/TR/2001/REC-SVG-20010904/DTD/svg10.dtd">
<svg version="1.0" xmlns="http://www.w3.org/2000/svg"
 width="1280.000000pt" height="640.000000pt" viewBox="0 0 1280.000000 640.000000"
 preserveAspectRatio="xMidYMid meet">
<metadata>
Created by potrace 1.15, written by Peter Selinger 2001-2017
</metadata>
<g transform="translate(0.000000,640.000000) scale(0.100000,-0.100000)"
fill="#9c27b0" stroke="none">
<path d="M4885 4860 c12 -102 28 -200 31 -197 7 7 -17 201 -26 217 -6 10 -8 3
-5 -20z"/>
<path d="M5031 4794 c0 -11 3 -14 6 -6 3 7 2 16 -1 19 -3 4 -6 -2 -5 -13z"/>
<path d="M4942 4760 c0 -14 2 -19 5 -12 2 6 2 18 0 25 -3 6 -5 1 -5 -13z"/>
<path d="M4993 4725 c0 -22 2 -30 4 -17 2 12 2 30 0 40 -3 9 -5 -1 -4 -23z"/>
<path d="M4950 4693 c0 -28 -3 -34 -10 -23 -7 10 -8 3 -5 -25 4 -34 3 -36 -5
-15 -7 18 -8 5 -5 -49 3 -41 8 -86 10 -100 5 -23 4 -24 -5 -6 -8 15 -9 4 -6
-45 l4 -65 -13 50 c-12 47 -13 43 -9 -65 3 -63 7 -123 10 -132 3 -10 2 -28 -1
-39 -6 -17 -9 -19 -16 -8 -6 10 -9 7 -9 -12 0 -34 -36 -47 -46 -17 -4 15 -8
17 -14 8 -6 -10 -13 -8 -31 9 -14 13 -25 17 -29 11 -6 -10 -60 98 -60 119 0 5
-13 25 -30 43 -16 18 -30 30 -30 27 0 -3 14 -43 30 -88 17 -46 29 -86 26 -88
-2 -3 -8 6 -12 19 -7 22 -7 22 -14 3 -6 -18 -9 -17 -29 15 -13 19 -20 26 -17
14 4 -12 3 -31 -2 -44 -7 -20 -12 -14 -40 49 -18 39 -35 71 -38 71 -3 0 -3 -8
1 -17 43 -107 55 -145 41 -133 -20 16 -20 9 -2 -35 13 -31 13 -37 0 -50 -8 -8
-12 -20 -8 -26 4 -8 3 -9 -5 -5 -6 4 -14 0 -17 -9 -5 -13 -9 -13 -22 -3 -13
11 -15 10 -9 -4 9 -25 -18 -12 -33 16 -7 13 -26 34 -42 46 l-30 22 7 -23 c4
-13 14 -37 23 -54 l15 -30 -27 24 c-14 14 -26 21 -26 17 0 -5 -7 -3 -15 4 -18
15 -20 0 -2 -20 10 -12 9 -12 -5 -1 -10 7 -27 28 -38 46 -20 32 -60 65 -84 69
-6 1 -17 5 -23 9 -7 5 -13 4 -13 -2 0 -5 4 -12 9 -16 5 -3 24 -24 43 -47 18
-23 27 -39 21 -35 -7 5 -13 4 -13 -2 0 -5 4 -12 10 -16 5 -3 19 -20 31 -38 14
-20 -3 -7 -44 33 -37 35 -67 61 -67 56 0 -16 -32 18 -127 132 -51 61 -96 112
-100 112 -3 0 1 -8 9 -17 8 -10 42 -51 76 -91 97 -114 76 -121 -35 -12 -94 91
-82 73 37 -54 30 -33 48 -54 39 -48 -9 7 -24 10 -33 6 -12 -5 -42 20 -109 87
-50 51 -99 94 -107 95 -8 2 29 -40 83 -92 55 -53 97 -97 95 -100 -3 -2 -15 7
-28 21 -13 14 -28 25 -34 25 -5 0 5 -16 24 -35 19 -19 29 -35 23 -35 -12 0
-65 65 -58 72 2 2 -46 53 -107 114 -62 60 -106 102 -100 93 7 -9 10 -18 7 -20
-2 -3 38 -47 90 -99 52 -52 95 -99 95 -105 0 -5 -46 35 -102 90 -57 55 -84 80
-60 55 23 -25 42 -49 42 -54 0 -4 36 -44 79 -89 44 -45 97 -104 119 -132 22
-27 56 -66 77 -85 20 -19 43 -51 51 -70 8 -19 27 -48 42 -64 l27 -29 -25 13
-25 13 25 -28 c14 -16 19 -25 13 -21 -7 4 -26 9 -43 11 -31 4 -36 -11 -15 -45
5 -8 -11 1 -35 21 -62 49 -80 58 -50 23 32 -37 8 -19 -82 59 -37 32 -84 69
-105 83 -32 20 -30 17 12 -18 60 -52 156 -145 135 -131 -29 19 -135 102 -156
123 -12 11 -50 39 -85 61 -35 23 -73 49 -84 58 -12 9 -9 4 6 -11 15 -14 25
-28 23 -31 -3 -2 20 -23 50 -45 29 -23 55 -39 57 -37 2 2 42 -33 89 -77 80
-76 62 -70 -40 12 -25 20 -70 54 -100 75 -53 38 -53 37 25 -39 44 -43 104 -96
132 -118 29 -22 51 -44 48 -48 -2 -4 32 -38 77 -76 44 -37 76 -70 69 -72 -6
-2 -11 -15 -11 -28 0 -14 -4 -23 -9 -19 -6 3 -16 -1 -23 -8 -7 -8 -21 -12 -31
-9 -17 4 -17 3 -6 -16 10 -16 10 -23 -3 -35 -8 -8 -20 -12 -27 -8 -6 4 -22 6
-34 5 -12 -1 -28 -3 -36 -3 -11 -1 -11 -4 -1 -16 18 -22 -5 -47 -35 -39 -13 3
-26 0 -30 -7 -6 -8 -4 -10 5 -4 9 5 11 4 6 -3 -4 -7 -14 -9 -24 -4 -9 4 -26 7
-37 7 -11 -1 -49 15 -85 34 -53 28 -61 31 -46 13 21 -24 16 -27 -17 -11 -21
10 -21 9 2 -10 14 -13 18 -21 10 -21 -8 0 -4 -9 11 -21 17 -15 6 -11 -35 10
-33 17 -49 23 -35 14 37 -27 77 -66 60 -58 -8 4 -6 -2 5 -12 11 -10 29 -30 40
-43 l20 -24 -37 23 c-21 12 -38 19 -38 14 0 -5 14 -17 30 -27 17 -9 28 -21 25
-27 -3 -5 -18 -1 -33 8 -26 17 -26 17 -13 0 12 -15 11 -17 -8 -17 -12 0 -33 7
-47 16 -13 9 -27 14 -30 11 -3 -2 11 -15 30 -27 62 -38 41 -56 -23 -19 l-36
21 26 -24 c15 -12 31 -33 38 -45 10 -19 8 -21 -12 -16 -21 5 -102 40 -159 69
-23 12 -26 12 -24 -3 2 -9 19 -28 38 -42 85 -62 148 -114 144 -118 -2 -3 -21
0 -42 6 -21 6 -40 9 -42 7 -5 -5 30 -40 54 -55 18 -10 18 -12 2 -25 -10 -7
-18 -18 -18 -25 0 -9 -5 -9 -22 0 -20 11 -21 10 -10 -3 10 -13 10 -17 -3 -22
-11 -4 -14 -2 -9 6 4 7 3 8 -4 4 -6 -4 -20 -2 -31 3 -23 13 -24 -7 -2 -33 7
-9 10 -16 5 -16 -5 0 0 -7 10 -15 19 -14 18 -15 -10 -16 -16 -1 -32 -1 -37 0
-4 1 -25 -8 -46 -18 -21 -11 -41 -17 -45 -14 -3 3 -36 19 -73 35 l-68 28 75
-76 c74 -75 75 -80 15 -42 -23 15 -20 11 10 -16 22 -20 35 -36 28 -36 -20 0
-8 -28 35 -79 45 -54 50 -64 27 -55 -9 4 -15 0 -15 -9 0 -17 -37 -30 -46 -15
-4 6 -9 6 -14 -2 -5 -8 -13 -9 -21 -4 -21 13 -51 16 -44 4 9 -14 -8 -13 -23 2
-7 7 -12 8 -12 3 0 -5 -18 9 -41 30 -24 24 -37 32 -33 21 5 -13 4 -17 -4 -12
-18 11 -14 0 5 -15 14 -12 16 -12 8 0 -5 9 -4 12 3 7 6 -4 9 -13 5 -22 -4 -12
-8 -12 -21 -2 -13 11 -13 10 1 -12 15 -24 17 -29 17 -49 0 -5 18 -32 39 -59
36 -45 38 -51 24 -65 -12 -12 -22 -13 -42 -6 -14 6 -22 7 -18 3 4 -4 -1 -17
-10 -28 -18 -20 -17 -20 2 -6 18 14 19 14 6 -2 -7 -10 -17 -16 -21 -13 -5 3
-11 1 -15 -5 -4 -6 -12 -7 -18 -3 -18 11 -47 11 -40 0 4 -6 -1 -8 -11 -4 -14
6 -17 3 -12 -10 6 -15 5 -16 -5 -5 -14 13 -33 17 -25 4 3 -5 -1 -9 -9 -9 -8 0
-11 5 -8 11 4 6 0 5 -8 -1 -12 -10 -18 -10 -29 0 -10 10 -12 8 -6 -8 5 -16 1
-15 -18 7 -13 15 -26 24 -29 21 -3 -2 -19 19 -36 49 -33 58 -39 60 -17 6 13
-31 13 -34 -4 -35 -12 -1 -23 12 -35 43 -9 25 -19 43 -21 41 -2 -2 3 -20 11
-40 17 -42 20 -71 5 -47 -8 13 -10 12 -10 -3 0 -10 5 -27 11 -38 6 -11 11 -47
12 -80 2 -52 0 -57 -12 -42 -12 16 -13 16 -8 -7 l6 -25 -24 27 c-13 15 -25 22
-27 16 -12 -35 -78 45 -78 95 0 9 -4 19 -10 22 -5 3 -15 25 -22 48 l-12 42 -7
-35 c-3 -20 -7 -26 -8 -15 l-2 20 -9 -20 c-8 -18 -9 -17 -9 7 -1 15 -5 29 -10
32 -16 10 -31 -81 -31 -187 0 -99 -1 -105 -19 -100 -11 3 -22 12 -24 22 -4 14
-5 14 -6 -1 -2 -34 -21 -18 -22 20 -1 37 -1 37 -9 7 l-7 -30 -11 28 c-13 32
-32 36 -32 7 0 -27 -18 -25 -23 2 -4 23 -4 23 -15 -2 -10 -23 -11 -24 -11 -3
-1 23 -13 24 -50 4 l-24 -13 6 58 7 59 -14 -40 -14 -40 -1 37 c-1 31 -4 36
-21 33 -16 -3 -18 0 -13 26 4 22 2 29 -10 29 -19 0 -31 33 -28 74 1 17 -1 27
-4 24 -6 -6 -48 -82 -85 -156 -14 -26 -29 -42 -41 -42 -12 0 -16 5 -13 15 4
11 2 13 -9 10 -10 -4 -17 2 -21 20 -4 14 -11 23 -16 20 -6 -3 -10 -1 -10 6 0
7 -7 4 -16 -7 -8 -10 -12 -13 -9 -6 4 8 9 35 10 60 4 66 11 88 41 139 14 25
20 42 13 37 -34 -21 -36 -9 -8 32 16 24 26 44 21 44 -6 0 -38 -42 -72 -92 -72
-106 -84 -122 -74 -93 4 11 -11 0 -33 -25 -23 -25 -44 -42 -48 -38 -5 4 -2 16
6 25 13 16 12 17 -3 5 -15 -12 -20 -12 -33 2 -9 9 -14 20 -10 26 4 6 -1 7 -11
3 -11 -4 -15 -2 -11 4 4 5 -1 19 -9 29 -9 10 -12 12 -8 4 7 -13 5 -13 -9 -1
-9 7 -14 17 -11 22 3 5 1 9 -5 9 -6 0 -8 7 -5 15 4 8 1 15 -6 15 -7 0 -9 8 -5
20 6 20 -9 28 -20 10 -3 -6 -11 -10 -17 -10 -6 0 -3 9 6 19 17 18 17 20 -1 29
-14 9 -16 13 -5 23 22 23 13 32 -16 14 l-27 -18 19 21 c11 12 15 22 11 22 -5
0 -4 5 3 12 16 16 15 28 -2 28 -22 0 -30 19 -16 35 15 18 -1 20 -18 3 -24 -24
-11 7 14 33 l26 28 -42 -5 c-24 -3 -60 -14 -81 -25 -43 -21 -53 -24 -44 -9 3
5 -6 17 -20 26 -14 9 -25 20 -25 26 0 5 25 32 55 61 52 48 71 76 43 62 -7 -4
5 9 27 29 22 19 40 40 40 45 0 5 19 23 43 40 46 34 58 54 16 26 -15 -9 -40
-19 -57 -22 -17 -3 -56 -22 -86 -42 -84 -57 -115 -71 -167 -74 -43 -2 -47 0
-49 23 -2 14 8 39 22 58 13 17 19 32 12 32 -8 0 -8 4 2 16 10 12 10 17 1 23
-7 4 -10 15 -6 24 4 10 1 17 -6 17 -9 0 -7 7 5 20 24 27 7 25 -61 -5 -64 -28
-78 -31 -50 -10 11 8 16 15 10 15 -5 1 5 12 21 26 19 17 23 24 11 20 -12 -4
-1 14 30 51 39 46 43 54 21 40 -16 -10 -31 -16 -34 -13 -3 3 -14 1 -25 -5 -33
-18 -34 0 -3 27 l30 24 -39 -22 c-22 -12 -36 -17 -32 -10 4 7 2 12 -5 12 -6 0
-1 9 13 19 13 11 39 34 57 51 l34 30 -48 -20 c-26 -11 -60 -29 -75 -40 -16
-11 -35 -20 -43 -20 -9 0 -19 -4 -22 -10 -3 -5 -11 -10 -17 -10 -6 0 -3 8 6
19 15 17 16 19 1 25 -9 3 -21 4 -26 0 -19 -11 -8 8 18 32 27 24 27 25 3 13
-18 -9 -25 -9 -28 0 -2 6 -9 8 -15 5 -7 -3 2 5 18 19 43 35 73 63 60 56 -19
-11 -55 -17 -55 -9 0 4 6 13 14 20 8 6 13 17 10 25 -3 7 -1 16 5 20 6 3 11 11
11 16 0 5 -12 2 -27 -8 l-28 -17 28 31 c19 20 25 33 18 38 -6 3 -9 11 -5 16 3
6 -33 -15 -81 -46 -90 -58 -128 -71 -131 -45 -2 30 -16 60 -25 54 -5 -3 -9 2
-9 11 0 10 -5 13 -13 9 -6 -4 -3 3 7 15 17 18 17 21 3 15 -16 -6 -21 5 -20 44
1 6 -8 12 -20 12 -19 0 -19 1 -3 19 13 14 14 21 5 27 -8 5 -10 3 -4 -6 6 -9 4
-11 -4 -5 -9 5 -6 14 11 34 12 14 16 20 8 14 -18 -17 -38 -17 -22 -1 7 7 12
19 12 27 0 11 -4 10 -20 -4 -18 -17 -20 -17 -14 -2 4 11 1 17 -7 17 -7 0 9 23
36 51 28 27 42 47 31 43 -17 -6 -17 -5 -6 17 10 20 10 22 -1 12 -25 -25 -32
-13 -8 13 l24 27 -30 -19 c-16 -10 -26 -14 -23 -9 4 6 3 16 -1 23 -6 9 -17 6
-45 -13 -20 -14 -43 -25 -50 -25 -7 0 -25 -13 -41 -30 -16 -16 -32 -30 -35
-30 -9 0 -6 32 5 49 5 9 2 18 -8 26 -13 9 -14 14 -4 25 9 10 9 11 -1 5 -8 -4
-1 12 14 36 15 25 20 38 11 30 -15 -11 -17 -11 -17 2 0 9 5 19 10 22 6 4 8 11
4 16 -3 5 -10 6 -16 3 -7 -5 -9 0 -6 14 6 22 -16 39 -28 21 -3 -6 -12 -8 -20
-5 -7 3 -18 -3 -23 -12 -8 -12 -10 -13 -11 -3 0 11 -5 10 -20 -4 -24 -22 -25
-18 -5 29 21 49 11 45 -20 -8 -37 -63 -65 -84 -36 -27 12 23 20 45 17 48 -3 3
-11 -6 -17 -21 -7 -14 -28 -35 -47 -46 l-35 -21 6 37 c6 34 5 35 -12 20 -25
-23 -31 -20 -31 14 0 25 -3 29 -22 27 -12 -2 -24 -9 -26 -15 -8 -26 -22 -10
-22 25 l0 36 -25 -23 c-26 -24 -29 -21 -26 25 1 18 0 17 -12 -4 -14 -23 -14
-23 -20 15 -4 22 -7 60 -7 85 0 42 -18 78 -32 64 -3 -3 -2 14 3 37 11 59 11
87 0 69 -7 -11 -10 -10 -13 5 -2 10 -8 -5 -12 -34 -9 -58 -27 -63 -20 -4 3 32
2 30 -11 -13 l-14 -50 3 65 4 65 -10 -55 c-5 -30 -18 -82 -28 -116 -10 -34
-22 -85 -26 -115 -4 -30 -9 -48 -12 -41 -3 11 -7 11 -21 -1 -24 -21 -49 -27
-54 -14 -3 9 -8 8 -20 -2 -20 -16 -23 -45 -4 -38 6 2 18 -3 25 -12 10 -12 15
-13 18 -3 9 21 22 13 33 -21 7 -20 10 -93 9 -180 -3 -156 6 -174 31 -62 7 30
17 55 22 55 5 0 9 7 9 16 0 14 3 14 15 4 13 -11 17 -8 26 20 8 22 14 28 20 19
6 -10 14 -6 35 14 33 33 41 34 56 2 9 -20 14 -23 25 -13 11 9 16 9 22 -1 6 -9
11 -8 21 4 18 21 30 19 30 -7 0 -20 1 -20 18 -5 33 30 33 18 2 -45 -24 -49
-26 -58 -10 -38 34 39 55 35 29 -6 -11 -19 -16 -34 -11 -34 5 0 7 -12 4 -27
-5 -26 -4 -27 13 -13 17 13 18 13 10 0 -8 -13 -7 -13 8 -1 9 7 17 10 17 6 0
-4 8 -1 17 6 14 12 15 12 9 0 -5 -8 2 -6 20 5 20 13 29 15 32 6 3 -9 11 -8 34
4 17 9 27 11 24 5 -4 -5 0 -14 9 -18 13 -8 13 -12 -2 -33 -10 -14 -19 -34 -21
-45 -1 -11 -19 -36 -38 -56 l-36 -37 29 6 c28 5 28 5 9 -17 -30 -33 -6 -25 33
12 18 17 30 25 25 17 -4 -8 -9 -23 -9 -32 -1 -15 3 -14 30 7 18 13 35 21 39
18 3 -3 13 0 22 8 15 12 16 11 9 -11 l-8 -25 23 20 c13 11 20 14 16 8 -7 -13
4 -17 33 -14 7 2 10 -2 7 -8 -4 -5 3 -12 14 -16 11 -3 20 -11 20 -17 0 -6 9
-8 19 -5 15 3 18 1 14 -11 -5 -12 -2 -14 12 -9 15 6 16 5 5 -8 -11 -13 -10
-14 3 -10 10 4 17 -1 22 -15 4 -11 13 -19 22 -18 10 2 17 -5 18 -20 1 -16 -11
-34 -39 -58 -23 -19 -41 -40 -41 -46 0 -6 -7 -13 -15 -15 -13 -4 -13 -3 0 7
10 8 11 10 2 8 -8 -2 -12 -7 -10 -10 2 -4 -13 -24 -32 -44 -31 -34 -32 -36 -8
-21 36 23 45 21 23 -3 -17 -19 -17 -19 13 -10 17 4 37 12 44 16 9 6 9 3 -1 -9
-13 -16 -12 -17 15 -6 16 6 43 13 59 15 l30 4 -40 -36 -40 -36 47 26 c53 30
66 33 48 11 -11 -13 -10 -15 6 -9 15 4 13 1 -6 -16 -17 -15 -19 -20 -8 -16 10
3 28 2 39 -3 21 -7 20 -9 -12 -29 -19 -11 -47 -35 -64 -53 l-30 -32 30 19 30
19 -19 -29 -19 -30 46 27 c80 47 34 -30 -56 -93 -40 -29 -45 -35 -30 -41 18
-7 28 -2 106 49 20 14 40 23 42 20 3 -3 -16 -19 -42 -37 -26 -17 -44 -31 -40
-31 5 0 22 9 38 21 33 23 130 61 137 54 3 -3 -2 -13 -11 -23 -21 -23 -22 -33
-2 -25 14 5 14 2 3 -22 -9 -21 -9 -28 1 -34 9 -6 10 -11 2 -15 -22 -14 -10
-24 18 -16 16 4 32 6 34 3 3 -2 15 0 26 7 18 9 21 8 21 -9 0 -17 5 -20 30 -14
26 5 30 3 30 -16 0 -44 -48 -115 -104 -155 -30 -21 -53 -43 -51 -47 3 -4 -15
-22 -40 -40 -55 -39 -58 -49 -8 -20 l38 22 -35 -32 c-19 -17 -27 -28 -18 -25
13 4 15 1 11 -12 -6 -15 -5 -15 10 -3 10 8 20 11 24 7 3 -3 17 1 30 9 24 16
83 49 138 77 17 9 45 21 63 26 29 9 33 9 28 -4 -5 -12 -1 -14 17 -8 l22 7 -20
-23 -20 -23 23 12 c13 7 26 10 30 7 3 -3 0 -6 -6 -6 -6 0 -9 -6 -6 -13 3 -8
-2 -20 -11 -27 -15 -13 -22 -35 -7 -26 10 6 9 -35 -1 -51 -6 -9 -3 -11 8 -7 8
4 22 1 30 -6 8 -6 20 -8 27 -4 7 4 1 -8 -15 -28 -27 -37 -27 -37 -5 -36 13 1
37 11 53 21 30 20 30 20 -5 -19 -19 -21 -26 -31 -15 -23 11 9 27 20 35 24 13
8 13 7 0 -10 -13 -16 -13 -18 0 -13 8 3 20 -2 26 -10 9 -12 13 -12 19 -2 5 9
4 11 -3 6 -18 -11 -14 0 5 15 9 8 14 9 10 3 -4 -7 0 -17 9 -24 8 -7 12 -20 9
-28 -4 -12 -3 -12 9 -3 7 6 21 8 30 5 16 -6 16 -8 -1 -28 -10 -11 -3 -7 16 9
32 29 33 29 21 5 -10 -21 -10 -23 1 -12 19 17 34 15 19 -3 -11 -13 -10 -14 3
-10 8 4 18 1 22 -4 3 -6 11 -9 16 -6 5 4 9 -1 9 -11 0 -13 3 -14 14 -5 12 10
17 8 26 -8 6 -12 17 -21 25 -21 7 0 21 -7 30 -16 14 -15 14 -18 0 -40 -9 -14
-13 -29 -10 -34 6 -10 -25 -77 -55 -120 -28 -40 -81 -142 -71 -136 5 4 26 33
46 66 34 56 59 84 35 41 -5 -11 -15 -32 -21 -48 -9 -26 -7 -24 26 12 20 22 33
33 30 25 -4 -8 3 -4 14 9 12 13 21 20 21 16 0 -4 8 -1 17 6 11 10 14 10 9 2
-16 -27 10 -11 46 29 l37 41 10 -26 c13 -33 24 -34 41 -3 13 25 44 31 67 13 7
-5 16 -7 20 -4 10 6 9 -109 -1 -141 -5 -15 -3 -24 7 -28 13 -4 13 -11 1 -50
-7 -24 -9 -44 -5 -44 5 0 12 12 16 27 4 16 15 36 26 46 18 17 19 17 20 0 0
-11 5 -5 12 14 16 43 29 53 17 14 -12 -43 7 -51 25 -9 8 18 15 26 15 18 1 -8
8 3 16 25 l14 40 -4 -40 c-3 -22 -1 -49 4 -60 7 -16 9 -12 15 23 9 50 23 65
18 19 -2 -21 2 -15 11 18 10 37 14 43 16 25 2 -18 4 -20 7 -7 2 9 10 17 18 17
9 0 12 -12 9 -42 l-4 -43 11 44 c11 45 24 45 32 1 4 -23 4 -23 7 5 l2 30 8
-30 8 -30 1 31 c1 45 28 52 40 11 7 -23 10 -26 11 -12 2 12 6 6 10 -15 7 -32
7 -33 9 -7 0 15 8 30 16 33 8 4 15 12 15 19 0 8 8 12 20 10 11 -2 20 2 20 8 0
18 40 15 41 -3 0 -8 5 -4 11 10 10 23 12 18 22 -45 6 -38 17 -80 24 -92 6 -12
12 -39 12 -60 0 -22 5 -44 11 -50 6 -6 16 -32 24 -59 13 -48 13 -49 15 -14 l2
35 10 -35 c5 -19 14 -39 19 -44 5 -6 9 -21 9 -35 0 -13 3 -22 6 -18 3 3 1 47
-6 97 -12 103 -7 130 9 48 l10 -53 -4 65 -4 65 11 -55 c6 -30 13 -50 15 -43 2
6 -3 48 -11 93 -19 98 -19 133 -1 70 7 -25 14 -36 15 -25 l1 20 8 -20 c6 -15
8 -8 9 25 0 58 12 111 23 104 5 -3 6 2 3 10 -4 11 2 19 19 25 14 5 28 15 32
20 13 22 41 9 65 -30 14 -23 34 -56 46 -75 14 -23 24 -30 30 -24 7 7 16 -3 27
-31 9 -24 19 -40 22 -37 3 3 -3 29 -15 57 -24 62 -25 73 -4 46 16 -19 16 -19
9 5 l-8 25 24 -20 c13 -11 19 -13 13 -5 -5 8 -15 27 -21 41 -10 24 -9 26 12
23 20 -2 23 1 16 19 -15 40 1 53 20 16 l18 -34 -6 35 c-6 32 -5 34 10 21 9 -7
17 -10 17 -5 0 4 7 -1 15 -12 15 -18 15 -18 8 0 -4 13 -3 17 5 12 6 -3 14 -1
18 5 5 8 3 9 -6 4 -8 -5 -11 -3 -8 6 3 8 2 21 -3 30 -5 10 -3 23 7 35 9 11 13
13 9 7 -11 -22 4 -14 16 8 6 12 7 19 2 16 -5 -3 -9 3 -9 13 0 15 4 16 19 8 17
-9 17 -7 6 14 -6 13 -8 20 -4 16 5 -4 14 -3 21 3 9 7 17 4 29 -13 l16 -23 -7
29 c-5 21 -4 27 5 22 8 -5 10 0 7 18 -3 18 0 26 10 26 8 0 17 7 20 15 5 11 11
8 31 -13 13 -15 21 -20 17 -12 -4 8 10 -1 32 -20 21 -19 30 -25 20 -12 -11 12
-16 25 -12 29 4 4 43 -31 87 -77 86 -91 95 -90 20 0 -25 30 -36 46 -23 36 12
-11 22 -15 22 -11 0 4 10 0 23 -11 l22 -19 -22 25 c-12 14 -22 29 -22 33 1 5
-3 12 -7 15 -4 4 -4 1 1 -7 5 -9 4 -12 -3 -7 -6 4 -8 13 -5 22 5 13 10 11 32
-8 15 -13 11 -6 -9 16 -19 21 -28 35 -20 31 9 -5 7 1 -5 15 -17 20 -18 23 -2
17 20 -7 23 13 5 31 -9 9 -9 12 0 12 9 0 8 7 -3 24 -11 16 -13 26 -5 31 6 3 8
11 5 16 -3 5 3 18 13 30 l20 20 45 -20 c25 -12 50 -21 54 -21 5 0 26 -12 47
-26 30 -21 40 -23 49 -14 9 10 9 11 -2 5 -10 -5 -12 -4 -7 4 5 8 17 5 39 -11
18 -13 32 -21 32 -18 0 3 22 -11 49 -30 27 -19 55 -34 63 -32 8 2 20 -1 26 -6
7 -5 19 -11 28 -14 14 -6 14 -3 0 27 -9 18 -49 58 -93 91 -74 56 -99 86 -41
49 15 -10 3 6 -27 35 -37 35 -45 46 -25 34 l30 -17 -20 23 c-20 23 -20 23 0
16 17 -6 16 -4 -5 19 -16 17 -19 24 -8 20 20 -8 19 15 -1 39 -12 14 -11 16 4
10 13 -5 16 -4 11 5 -6 8 2 7 22 -3 39 -20 37 -21 40 11 3 33 9 40 24 25 19
-19 28 -14 18 12 -7 21 -4 26 26 42 l34 19 -22 19 -23 18 25 -14 c14 -8 32
-18 40 -23 29 -18 43 -14 24 6 -17 19 -17 20 1 13 14 -6 16 -4 10 6 -5 9 -4
11 4 6 6 -4 8 -12 5 -18 -5 -7 -2 -8 5 -4 7 5 40 -11 82 -38 38 -25 69 -44 69
-42 0 3 -20 19 -45 36 -25 17 -44 34 -43 38 2 4 -15 24 -36 45 -39 37 -37 44
14 38 8 -1 -2 9 -22 24 -40 27 -51 43 -19 25 25 -13 34 -13 26 0 -3 6 1 7 10
3 13 -5 14 -7 3 -14 -9 -6 -9 -9 -1 -9 7 0 17 8 22 19 8 14 4 24 -19 46 -32
31 -31 52 2 34 12 -6 18 -7 14 -1 -7 12 21 24 37 16 7 -3 1 4 -13 15 -21 18
-21 20 -5 15 11 -4 39 -18 63 -32 41 -23 55 -20 30 7 -11 11 -10 13 2 8 8 -3
24 -8 35 -12 18 -6 18 -5 2 5 -14 9 -15 15 -6 31 9 17 2 27 -47 75 -54 51 -57
55 -35 61 l23 6 -28 22 c-24 19 -25 23 -10 28 11 5 15 3 10 -5 -4 -7 -3 -8 5
-4 9 6 9 13 -2 29 -19 29 -3 99 21 90 11 -5 13 -3 6 8 -5 8 -9 28 -10 46 -1
30 0 31 20 21 18 -10 19 -9 8 4 -10 13 -10 17 4 22 9 4 14 12 10 21 -8 22 21
31 42 12 35 -30 154 -107 166 -107 7 0 46 -26 87 -57 49 -37 64 -46 45 -25
-29 31 -25 45 5 20 7 -7 -3 5 -23 27 -62 67 -139 179 -133 194 3 7 0 20 -6 27
-8 10 -8 14 0 14 6 0 10 3 10 8 -3 19 2 23 16 12 13 -11 14 -10 9 5 -6 16 -5
16 23 1 17 -8 62 -44 99 -78 38 -35 87 -76 109 -93 22 -16 60 -47 85 -69 24
-23 37 -32 29 -21 -31 40 -32 46 -5 35 29 -11 34 1 10 20 -8 8 -20 23 -26 34
-9 18 -7 18 17 -4 20 -18 14 -6 -19 39 -41 57 -51 76 -44 84 2 1 -8 20 -22 42
-20 34 -21 38 -5 25 16 -12 15 -9 -3 15 -13 16 -19 31 -13 33 7 2 5 16 -4 40
-15 35 -15 35 4 18 15 -14 20 -14 24 -3 3 8 1 20 -4 28 -17 27 -8 34 12 9 17
-21 19 -22 10 -3 -14 27 -14 36 -1 28 6 -3 10 -2 10 2 0 5 9 9 20 10 13 1 26
-9 35 -28 15 -29 32 -41 22 -16 -3 8 1 14 8 14 8 0 24 -23 37 -51 19 -44 23
-47 26 -27 3 19 6 21 13 10 13 -21 11 15 -5 84 -13 53 -12 61 7 58 4 0 7 9 7
22 0 16 3 18 9 9 6 -10 10 -4 15 19 l6 32 28 -30 c26 -29 59 -135 78 -246 4
-23 10 -34 14 -27 4 6 11 -17 15 -52 6 -55 8 -60 17 -38 5 14 7 61 4 105 -3
50 -2 73 4 60 6 -15 9 -6 9 35 1 59 12 87 30 76 7 -5 11 2 11 18 0 38 20 42
21 4 l2 -33 4 30 c9 73 49 115 74 77 7 -12 12 -14 15 -4 10 23 24 12 24 -18 0
-16 4 -30 10 -30 5 0 7 -7 4 -15 -8 -21 6 -41 18 -24 5 9 6 3 2 -16 -4 -21 -3
-26 4 -16 11 16 10 -46 -2 -89 -8 -29 19 17 54 92 13 27 31 49 43 53 57 18 81
6 66 -32 -7 -18 -6 -28 1 -33 7 -4 4 -23 -11 -56 -38 -87 -58 -144 -49 -144 5
0 12 5 15 10 4 6 10 8 15 5 4 -3 17 10 29 28 11 18 31 43 44 55 l24 23 -5 -28
c-5 -28 -5 -28 17 -9 23 21 34 28 102 65 24 13 46 23 49 22 15 -7 -12 -47 -98
-151 -142 -168 -232 -289 -180 -242 14 13 30 22 36 20 6 -2 45 28 87 66 84 76
187 158 168 135 -6 -8 -13 -27 -15 -42 -3 -17 -27 -52 -64 -89 -32 -35 -47
-53 -33 -40 27 24 45 29 33 10 -9 -13 8 -5 52 28 17 13 34 20 38 17 3 -3 16 2
28 13 13 10 3 -4 -22 -30 -43 -46 -43 -48 -10 -24 19 14 42 29 50 33 12 7 13
6 3 -7 -20 -24 -5 -27 37 -6 21 11 49 21 62 23 13 2 37 6 55 10 26 6 33 3 43
-14 14 -27 7 -38 -58 -96 -28 -26 -50 -51 -46 -56 3 -5 -7 -20 -23 -35 -22
-20 -23 -23 -6 -15 12 6 34 16 50 21 26 9 27 9 9 -5 -27 -21 -13 -31 16 -11
32 23 45 20 22 -5 l-19 -21 40 17 c95 40 109 20 40 -57 -50 -56 -56 -73 -23
-62 20 6 21 5 9 -10 -18 -22 -5 -20 35 5 27 16 33 17 28 5 -8 -20 8 -20 61 -1
49 18 50 18 36 2 -6 -8 -8 -17 -4 -20 3 -4 0 -14 -8 -23 -13 -16 -12 -16 18
-1 39 21 83 22 83 3 0 -7 -26 -30 -57 -51 -32 -21 -52 -40 -45 -43 12 -4 381
225 412 256 8 8 -29 -8 -82 -37 -53 -28 -99 -51 -102 -51 -2 0 -4 9 -3 20 1
11 5 20 10 20 4 0 5 5 1 12 -4 6 1 17 11 25 14 9 15 13 4 13 -9 1 -6 7 10 20
26 23 24 24 -16 10 -28 -10 -28 -10 -7 7 12 10 30 23 40 30 18 12 18 12 0 6
-13 -4 -17 -3 -12 5 5 8 2 10 -8 6 -24 -9 -19 7 11 38 23 25 24 28 8 28 -18 0
-18 1 1 15 18 14 16 15 -20 11 -21 -3 -43 -9 -49 -15 -7 -7 -15 -5 -24 7 -8 9
-12 12 -9 6 3 -7 -6 -20 -20 -29 -17 -11 -24 -12 -18 -4 5 8 7 23 5 33 -1 11
9 28 26 42 22 19 24 23 10 24 -15 0 -16 3 -5 23 7 12 13 29 13 36 0 8 33 38
72 66 71 50 102 76 73 60 -8 -4 -23 -15 -32 -23 -9 -7 -22 -11 -28 -7 -6 3 -9
1 -8 -6 2 -6 -3 -14 -11 -17 -9 -3 -11 0 -6 8 4 7 -4 4 -19 -5 -14 -10 -26
-14 -26 -10 0 4 -7 2 -15 -5 -8 -6 -19 -9 -24 -6 -5 4 -13 1 -17 -5 -4 -8 -3
-9 4 -5 7 4 12 5 12 2 0 -3 -10 -10 -21 -17 -17 -9 -20 -8 -13 2 4 8 -5 4 -20
-9 -16 -12 -33 -19 -39 -15 -5 3 -7 2 -4 -3 3 -6 -3 -16 -15 -23 -11 -7 -17
-8 -14 -2 10 16 -12 23 -34 11 -24 -13 -25 -7 -3 27 17 25 17 26 -7 18 -21 -6
-23 -5 -12 6 17 18 15 32 -4 25 -19 -7 41 71 68 87 10 7 18 15 18 20 0 4 -12
0 -27 -9 -19 -12 -16 -7 9 15 21 17 47 46 60 64 l22 32 -34 -26 c-53 -39 -56
-40 -55 -13 1 16 23 47 61 86 l59 60 -45 -27 c-25 -15 -52 -33 -61 -39 -8 -6
11 14 43 44 66 62 77 85 21 43 l-37 -28 23 34 c22 30 22 32 4 23 -11 -6 -26
-18 -33 -27 -7 -8 -36 -35 -63 -58 -43 -35 -48 -37 -33 -14 16 24 16 27 2 21
-23 -9 -20 19 4 41 14 13 17 22 10 29 -7 7 7 28 45 66 42 43 51 56 36 56 -11
0 -18 -4 -15 -7 2 -4 -1 -11 -7 -15 -8 -4 -9 -3 -5 4 10 16 -7 15 -23 0 -8 -7
7 13 33 45 51 64 54 69 29 60 -16 -6 -17 -5 -3 12 13 17 13 18 0 10 -8 -4 -21
-13 -29 -19 -7 -5 -19 -11 -26 -12 -24 -4 -81 -52 -136 -117 -102 -118 -162
-177 -181 -177 -15 0 -18 5 -12 23 3 12 13 29 20 38 22 25 16 34 -8 13 -13
-10 -17 -12 -10 -4 15 17 16 34 1 24 -7 -4 -6 3 2 17 7 13 12 28 11 32 -1 5 2
6 7 2 10 -6 34 29 25 37 -2 3 11 29 31 58 19 28 35 58 35 65 0 17 -26 13 -43
-5 -10 -12 -9 -12 6 -1 39 30 13 -8 -39 -58 -61 -57 -61 -56 5 48 19 31 25 65
9 55 -7 -4 -8 -3 -4 5 11 16 28 2 22 -18 -7 -19 30 25 45 54 5 11 0 8 -11 -8
-20 -25 -40 -28 -40 -6 0 6 5 7 10 4 6 -4 10 -3 9 2 -4 21 2 34 13 27 6 -4 8
-3 4 4 -3 6 2 15 11 21 10 6 14 11 8 11 -5 0 0 8 13 18 13 10 24 25 25 32 2 8
17 36 35 63 18 26 29 47 25 47 -11 0 -79 -109 -75 -121 1 -6 -2 -8 -7 -5 -4 3
-21 -12 -35 -35 -15 -22 -31 -37 -36 -34 -5 3 -7 0 -4 -8 3 -9 -7 -24 -27 -37
l-31 -23 11 22 c7 12 16 19 20 17 4 -3 7 8 6 24 -2 30 6 51 21 53 5 1 7 8 6
16 -2 8 1 10 10 5 7 -4 10 -4 6 1 -4 4 0 14 10 22 10 9 11 12 2 7 -8 -4 -3 4
12 18 14 14 34 40 43 59 l18 34 -39 -40 c-21 -22 -59 -71 -83 -108 -24 -37
-45 -67 -48 -67 -5 0 -3 4 55 93 53 83 50 101 -4 21 -22 -31 -51 -71 -65 -88
-14 -17 -45 -61 -68 -98 -28 -45 -47 -65 -56 -61 -9 3 -19 -5 -26 -21 -14 -29
-32 -36 -22 -8 3 9 3 14 -2 10 -4 -4 -14 -3 -22 4 -11 9 -17 6 -29 -10 -18
-25 -39 -30 -30 -6 3 9 9 28 12 42 4 24 3 23 -14 -7 l-19 -34 -17 33 c-16 33
-16 36 29 169 46 139 86 283 81 289 -5 4 -21 -41 -56 -155 -32 -103 -47 -132
-36 -70 6 32 6 32 -5 4 -12 -31 -33 -26 -24 6 13 47 -18 -16 -35 -73 l-17 -55
0 40 c0 22 -3 51 -7 65 -5 19 -3 17 7 -5 l14 -30 -1 35 c0 19 3 49 7 65 6 27
6 26 -7 -5 -11 -26 -15 -30 -16 -15 -1 11 -10 -10 -19 -46 -30 -111 -91 -222
-91 -164 0 20 -17 19 -29 -2 -13 -23 -24 -20 -32 9 -5 20 -7 21 -13 6 -20 -57
-19 -55 -23 -35 -3 9 -8 15 -12 13 -18 -11 -33 15 -38 68 l-6 58 -18 -39 -18
-38 -1 48 c0 26 -4 47 -10 47 -5 0 -10 10 -11 23 -1 12 -6 2 -12 -23 -10 -45
-11 -45 -18 -15 -3 17 -8 71 -9 120 -1 50 -6 119 -10 155 -6 57 -7 49 -8 -62
-2 -97 -5 -127 -14 -125 -9 1 -15 -15 -18 -48 l-5 -50 -8 65 c-14 113 -26 145
-21 55 5 -94 -10 -76 -20 25 -4 36 -10 79 -14 95 l-6 30 -7 -35 c-6 -25 -7
-20 -3 18 3 32 1 51 -4 48 -6 -4 -8 26 -6 74 2 44 2 80 -1 80 -3 0 -5 -17 -5
-37z m27 -260 c-3 -10 -5 -4 -5 12 0 17 2 24 5 18 2 -7 2 -21 0 -30z m-1021
-255 l29 -33 -32 29 c-31 28 -38 36 -30 36 2 0 16 -15 33 -32z m14 -53 c0 13
34 -21 69 -70 18 -25 31 -45 29 -45 -2 0 -39 37 -83 82 -44 46 -65 69 -47 53
17 -16 32 -25 32 -20z m302 -89 c10 -19 10 -20 -6 -7 -9 8 -22 24 -28 35 -10
19 -10 20 6 7 9 -8 22 -24 28 -35z m162 -12 c3 -8 2 -12 -4 -9 -6 3 -10 10
-10 16 0 14 7 11 14 -7z m1625 -169 c-34 -37 -51 -47 -28 -17 29 39 43 52 51
52 5 0 -6 -16 -23 -35z m-1844 -185 c10 -11 16 -20 13 -20 -3 0 -13 9 -23 20
-10 11 -16 20 -13 20 3 0 13 -9 23 -20z m1337 -247 c-11 -16 -35 -41 -53 -58
-20 -18 -13 -7 17 27 53 62 67 74 36 31z m128 -17 c0 -2 -8 -10 -17 -17 -16
-13 -17 -12 -4 4 13 16 21 21 21 13z m-4620 -261 c-7 -8 -18 -15 -24 -15 -6 0
-2 7 8 15 25 19 32 19 16 0z m2501 -282 c13 -17 13 -17 -6 -3 -11 8 -22 16
-24 17 -2 2 0 3 6 3 6 0 17 -8 24 -17z m-83 -86 c-1 -2 4 -12 12 -22 15 -18
14 -18 -12 -1 -32 21 -36 28 -11 19 12 -5 14 -3 8 8 -4 8 -5 11 -1 7 4 -3 6
-8 4 -11z m-223 -317 c10 -11 16 -20 13 -20 -3 0 -13 9 -23 20 -10 11 -16 20
-13 20 3 0 13 -9 23 -20z m-548 -202 c-3 -8 -6 -5 -6 6 -1 11 2 17 5 13 3 -3
4 -12 1 -19z m466 -193 c-3 -10 -1 -15 7 -13 7 2 15 -4 17 -12 4 -13 3 -13 -6
0 -10 13 -11 13 -11 0 -1 -12 -3 -11 -11 3 -5 9 -7 22 -4 27 10 15 15 12 8 -5z
m-446 -357 c-3 -8 -6 -5 -6 6 -1 11 2 17 5 13 3 -3 4 -12 1 -19z"/>
<path d="M5032 4615 c0 -16 2 -22 5 -12 2 9 2 23 0 30 -3 6 -5 -1 -5 -18z"/>
<path d="M4991 4614 c0 -11 3 -14 6 -6 3 7 2 16 -1 19 -3 4 -6 -2 -5 -13z"/>
<path d="M10351 4614 c0 -11 3 -14 6 -6 3 7 2 16 -1 19 -3 4 -6 -2 -5 -13z"/>
<path d="M4887 4540 c3 -36 7 -67 9 -69 7 -8 2 73 -6 104 -5 19 -6 6 -3 -35z"/>
<path d="M5003 4535 c0 -22 2 -30 4 -17 2 12 2 30 0 40 -3 9 -5 -1 -4 -23z"/>
<path d="M5043 4475 c0 -22 2 -30 4 -17 2 12 2 30 0 40 -3 9 -5 -1 -4 -23z"/>
<path d="M10026 4408 c10 -110 12 -228 5 -228 -4 0 -16 16 -27 35 -21 39 -38
29 -28 -17 3 -15 3 -37 -1 -48 -6 -17 -9 -19 -22 -9 -12 10 -16 10 -23 -1 -7
-11 -11 -9 -19 10 -8 22 -10 22 -11 5 -1 -13 -4 -15 -7 -6 -4 11 -7 11 -13 0
-6 -9 -13 -2 -24 22 l-15 34 5 -35 c4 -30 3 -32 -5 -12 -15 32 -21 27 -11 -8
6 -21 5 -28 -2 -24 -6 4 -8 -1 -3 -16 7 -21 6 -21 -19 -5 -14 10 -26 14 -26 9
0 -4 -7 1 -16 12 -14 18 -15 18 -8 -6 6 -24 6 -25 -10 -5 -17 20 -17 20 -11
-5 6 -24 5 -23 -15 5 -12 17 -19 22 -16 13 16 -48 16 -51 1 -27 -10 14 -26 29
-36 35 -10 5 -46 34 -80 64 l-63 55 28 -47 c15 -27 25 -48 21 -48 -4 0 3 -16
15 -35 12 -19 19 -35 15 -35 -3 0 -1 -10 5 -22 7 -13 -4 -6 -25 17 l-36 40 26
-42 c27 -45 31 -58 16 -49 -17 11 -4 -61 18 -103 25 -49 26 -55 6 -47 -9 3
-15 0 -15 -10 0 -11 -10 -14 -37 -13 -21 1 -42 5 -48 8 -22 12 -46 11 -38 -1
4 -7 -6 -5 -21 6 -18 11 -26 13 -21 5 4 -8 -14 6 -41 31 -27 25 -43 38 -36 31
16 -19 16 -34 0 -24 -7 4 -5 -5 5 -20 32 -50 17 -40 -55 35 -40 41 -53 52 -28
24 82 -91 84 -95 89 -137 1 -4 22 -30 47 -58 29 -33 40 -51 31 -51 -9 0 -19
-5 -23 -12 -5 -7 -3 -8 6 -3 8 5 11 4 7 -3 -8 -12 -25 -11 -47 3 -13 7 -13 6
-2 -7 10 -12 8 -20 -9 -42 -12 -15 -26 -25 -33 -23 -6 3 -20 -3 -30 -12 -11
-9 -16 -11 -13 -5 4 7 -1 18 -11 25 -13 10 -14 10 -6 0 17 -18 6 -51 -14 -44
-11 5 -14 2 -10 -9 4 -8 1 -15 -8 -15 -7 0 -11 4 -8 8 2 4 0 11 -6 14 -6 4
-10 3 -9 -2 4 -23 -2 -35 -17 -29 -8 3 -12 2 -9 -4 8 -13 -11 -13 -37 1 -16 9
-19 8 -13 -2 6 -8 4 -10 -6 -3 -8 4 -19 9 -26 10 -7 1 -27 12 -45 25 -32 22
-32 22 7 -22 22 -24 33 -38 26 -31 -22 18 -36 15 -20 -5 14 -17 -24 2 -106 51
l-30 18 25 -21 c14 -12 37 -29 52 -38 15 -9 30 -23 33 -31 5 -12 3 -13 -10 -2
-9 7 -18 11 -21 8 -3 -3 14 -21 38 -39 41 -33 48 -39 51 -56 1 -5 13 -19 27
-31 20 -19 21 -22 6 -18 -15 5 -17 4 -7 -7 9 -12 7 -13 -14 -9 -18 3 -30 -2
-43 -18 -16 -20 -21 -21 -43 -9 -13 7 -28 13 -34 14 -5 0 -21 6 -35 12 -14 6
-45 19 -70 28 -25 9 -58 24 -75 32 -28 13 -29 13 -10 -2 11 -9 20 -20 20 -25
0 -4 4 -12 9 -17 5 -5 6 -2 1 6 -5 9 -4 12 4 10 7 -3 11 -7 9 -9 -1 -3 8 -20
21 -39 l24 -33 -41 25 c-41 27 -61 26 -39 -1 10 -13 9 -15 -3 -9 -8 4 -7 2 4
-5 25 -17 57 -46 36 -33 -13 9 -13 8 -1 -8 7 -9 49 -42 93 -73 67 -46 77 -58
67 -70 -7 -8 -19 -12 -27 -9 -12 4 -12 2 -4 -8 18 -22 2 -28 -27 -10 -25 14
-25 14 -6 -2 19 -16 18 -16 -25 -12 l-44 4 27 -21 c29 -24 27 -42 -4 -26 -12
7 -20 6 -24 -1 -4 -6 -14 -8 -22 -5 -8 3 -12 2 -9 -3 8 -13 -21 -34 -36 -26
-7 4 -2 -3 12 -14 14 -11 30 -21 35 -20 6 0 2 4 -8 10 -9 6 -15 15 -11 20 8
13 33 -21 27 -37 -4 -11 -39 -12 -98 -2 -14 2 -20 -2 -19 -14 2 -23 -2 -22
-36 2 l-28 20 6 -22 c4 -17 2 -20 -12 -15 -11 4 -15 3 -10 -4 9 -16 -51 -4
-84 16 -15 9 -2 -8 29 -39 31 -30 55 -57 53 -59 -2 -2 13 -18 34 -34 38 -31
51 -63 26 -63 -7 0 -16 -5 -20 -12 -5 -7 -3 -8 6 -3 8 5 11 4 7 -2 -4 -6 -18
-9 -32 -8 -14 2 -25 -1 -25 -7 0 -6 -7 -7 -16 -4 -9 3 -12 2 -9 -5 4 -6 13 -8
19 -6 7 3 13 -1 13 -9 0 -17 -2 -17 -30 -2 -12 6 -34 12 -49 12 -14 1 -30 4
-34 9 -4 4 -15 7 -24 7 -8 0 -31 13 -50 29 -31 26 -36 27 -47 12 -10 -14 -15
-13 -42 13 -17 16 -33 27 -36 24 -5 -5 42 -50 160 -152 22 -19 25 -24 10 -20
-14 5 -8 -5 19 -34 39 -40 44 -69 9 -41 -16 12 -17 12 -5 -2 10 -13 9 -19 -3
-29 -8 -7 -12 -17 -8 -24 4 -6 -1 -5 -10 3 -15 12 -17 12 -11 -4 5 -11 4 -16
-3 -12 -5 4 -19 -1 -29 -9 -10 -9 -13 -12 -5 -8 10 5 12 3 6 -5 -4 -7 -16 -11
-26 -8 -12 3 -17 1 -12 -6 4 -6 0 -8 -10 -4 -10 3 -17 2 -17 -3 0 -6 -9 -10
-20 -10 -23 0 -26 -10 -8 -28 7 -7 8 -12 2 -12 -6 0 -14 3 -18 7 -11 11 -30
10 -38 -2 -5 -6 -11 -6 -20 3 -17 17 -33 15 -19 -2 10 -12 8 -13 -9 -9 -11 3
-23 9 -26 14 -9 14 -24 10 -18 -5 3 -7 -2 -16 -11 -20 -9 -3 -14 -2 -11 2 2 4
-4 8 -14 8 -15 0 -17 -4 -9 -21 6 -11 -3 -4 -20 15 -20 23 -31 30 -32 20 -3
-34 4 -77 17 -109 15 -36 18 -59 7 -48 -3 4 -15 -1 -25 -10 -17 -15 -21 -15
-29 -3 -8 11 -9 8 -4 -10 6 -23 4 -22 -22 9 -15 19 -37 51 -49 70 -11 20 -25
35 -30 34 -6 -1 -32 40 -58 90 -27 51 -45 79 -41 62 5 -16 9 -46 10 -65 1 -19
12 -66 25 -105 25 -76 30 -176 10 -200 -11 -13 -14 -13 -26 2 -11 15 -13 15
-14 3 0 -8 -10 0 -21 18 -12 17 -26 32 -33 32 -6 0 -17 9 -24 20 -7 12 -17 18
-22 15 -6 -3 -10 0 -10 7 -1 8 -5 7 -14 -5 -13 -17 -15 -16 -21 15 -7 29 -9
30 -16 13 -4 -11 -8 -47 -8 -80 -1 -43 -4 -56 -11 -45 -5 8 -10 29 -11 45 -1
29 -1 30 -9 5 -7 -23 -8 -23 -10 10 -2 32 -3 33 -9 10 -7 -23 -8 -21 -13 15
-4 22 -11 56 -16 75 -9 33 -10 31 -12 -30 -2 -56 -4 -60 -10 -30 l-7 35 -2
-35 c-1 -27 -4 -31 -11 -20 -5 8 -10 29 -11 45 -2 27 -3 25 -9 -10 -5 -29 -8
-33 -9 -15 -2 23 -3 24 -11 5 -6 -13 -7 -3 -4 31 4 35 2 54 -6 59 -9 6 -10 -1
-5 -26 4 -21 3 -29 -3 -21 -5 8 -13 -17 -22 -70 -10 -63 -15 -77 -20 -58 l-7
25 -11 -25 c-9 -22 -11 -22 -12 -5 0 17 -2 17 -10 5 -7 -11 -10 -5 -11 25 l-1
40 -10 -34 c-6 -24 -12 -31 -18 -22 -6 11 -9 11 -13 0 -6 -13 -1 37 9 91 4 23
3 23 -13 -5 l-17 -30 -11 50 c-10 46 -12 48 -23 30 -12 -19 -13 -18 -9 7 2 16
-1 32 -7 37 -8 7 -23 -18 -51 -86 -22 -52 -44 -98 -50 -101 -19 -12 -34 -10
-28 4 3 9 -2 14 -16 14 -12 0 -21 5 -21 11 0 6 -7 9 -15 5 -8 -3 -15 -1 -15 5
0 6 -7 9 -15 6 -11 -5 -12 -1 -4 20 8 23 8 24 -6 13 -12 -10 -16 -9 -21 4 -3
9 -10 13 -15 10 -5 -3 -6 2 -3 10 4 11 0 16 -12 16 -16 0 -19 7 -18 40 0 33
-2 38 -13 28 -12 -10 -13 -7 -7 18 5 23 4 27 -6 17 -7 -6 -19 -9 -26 -6 -10 4
-7 15 15 46 45 67 48 75 26 57 -17 -14 -18 -14 -6 9 8 15 9 21 2 17 -15 -10
-14 7 2 24 6 8 1 6 -12 -5 -14 -11 -21 -15 -18 -8 15 24 -15 24 -48 -1 -18
-14 -37 -26 -41 -26 -3 0 -23 -14 -43 -32 -35 -31 -36 -31 -39 -9 -2 12 1 28
7 35 9 10 7 15 -5 20 -13 5 -14 9 -4 21 7 8 9 15 6 15 -4 0 3 14 15 32 13 17
18 28 11 24 -16 -10 -15 6 1 23 10 11 9 14 -1 18 -10 4 -10 8 -1 19 6 8 8 14
3 15 -48 4 -66 4 -70 -3 -3 -4 -11 -5 -18 -2 -8 3 -17 1 -21 -5 -3 -6 -11 -11
-18 -11 -6 0 4 16 23 35 42 43 35 45 -16 4 -64 -50 -82 -54 -39 -9 38 41 39
42 8 21 -18 -12 -49 -25 -70 -28 l-37 -6 24 33 23 32 -34 -7 c-28 -6 -32 -5
-23 6 7 8 15 24 18 36 6 19 4 22 -10 16 -12 -5 -15 -3 -9 6 6 10 3 11 -13 2
-31 -17 -34 -14 -17 19 20 39 19 41 -10 34 -19 -5 -25 -2 -25 10 0 9 7 19 15
22 8 4 15 11 15 17 0 7 -4 7 -12 -1 -7 -7 -16 -12 -20 -12 -9 0 15 41 60 100
18 24 31 48 29 54 -2 6 14 23 35 38 21 16 38 33 38 38 0 14 -4 13 -47 -12 -33
-19 -36 -20 -23 -3 14 17 14 18 -10 6 -20 -10 -18 -6 10 19 l35 32 -45 -29
c-25 -16 -70 -40 -100 -52 -30 -13 -66 -31 -80 -41 -41 -28 -54 -34 -47 -23 4
5 -12 16 -34 23 -27 9 -36 17 -29 24 5 5 10 14 10 18 0 12 -48 10 -55 -2 -3
-5 -2 -10 3 -10 5 0 8 -11 7 -25 -2 -16 2 -25 11 -25 18 0 18 -3 -6 -50 -13
-26 -41 -54 -76 -77 -30 -20 -62 -49 -70 -65 -8 -15 -33 -40 -56 -56 -42 -27
-42 -27 -15 -30 16 -2 45 7 70 21 77 46 134 39 102 -13 -6 -9 5 -6 29 8 44 26
64 29 46 7 -13 -16 -12 -16 35 -20 17 -2 36 -3 44 -4 11 -1 11 -4 1 -16 -11
-13 -10 -14 3 -9 12 4 15 0 11 -24 -4 -27 -3 -29 21 -25 20 4 25 1 25 -16 0
-18 3 -19 24 -11 31 11 37 4 25 -27 -7 -19 -6 -24 3 -20 7 3 21 8 31 12 34 14
16 -14 -45 -69 l-63 -57 50 31 c27 17 51 26 53 20 2 -5 9 -7 15 -4 7 4 -4 -10
-23 -31 -19 -21 -30 -35 -23 -31 9 5 10 -3 6 -30 -6 -36 -6 -36 18 -24 20 10
22 10 12 -1 -17 -17 -17 -37 -1 -21 16 16 31 16 22 0 -4 -7 8 -1 27 12 32 22
33 23 15 2 -17 -19 -10 -33 8 -15 9 9 38 13 48 7 5 -3 3 -13 -4 -21 -14 -17
-13 -17 51 16 18 10 21 10 16 0 -5 -7 0 -18 10 -26 18 -12 18 -14 -4 -44 -13
-18 -19 -29 -12 -25 13 8 10 -29 -4 -41 -4 -5 -5 -2 0 6 5 10 4 12 -4 7 -6 -4
-9 -12 -6 -17 3 -5 -16 -32 -42 -61 -26 -29 -35 -42 -20 -29 15 14 27 21 27
17 0 -4 9 -2 21 4 29 16 33 7 13 -32 l-17 -33 25 23 c13 12 28 19 33 15 4 -5
5 -3 2 3 -4 6 3 20 16 30 l22 19 -19 -22 c-11 -14 -14 -24 -8 -24 7 -1 18 -2
25 -4 6 -1 25 12 40 29 l28 31 -18 -30 -18 -30 39 29 c22 16 36 24 32 18 -4
-7 -9 -22 -11 -34 -4 -21 -2 -20 23 7 15 17 24 26 20 21 -5 -6 -8 -13 -8 -16
0 -9 32 -6 49 4 10 7 11 4 1 -14 -11 -21 -11 -21 14 -4 24 15 26 15 20 0 -5
-12 -2 -15 10 -10 9 3 16 1 16 -5 0 -9 5 -9 22 0 18 10 20 9 15 -5 -6 -14 -3
-15 14 -5 19 10 20 9 14 -12 -7 -22 -7 -22 10 -6 16 17 18 17 35 -3 17 -20 19
-20 28 -4 9 16 11 15 21 -5 7 -12 16 -19 22 -15 11 6 7 -17 -17 -100 -17 -62
-17 -67 2 -36 14 23 14 23 9 3 -4 -13 -8 -44 -10 -70 l-4 -48 19 40 18 40 3
-38 4 -38 29 43 28 43 -6 -35 -6 -35 19 31 c10 17 22 41 26 53 4 12 9 20 12
17 4 -3 13 0 20 6 13 10 14 5 8 -36 -10 -62 8 -55 26 11 10 39 13 44 17 23 l4
-24 14 24 c14 24 14 23 8 -15 -8 -50 2 -42 20 16 l14 44 2 -35 c1 -29 3 -32
10 -15 6 14 9 -1 10 -50 1 -74 18 -140 19 -77 1 39 16 42 29 5 8 -25 10 -21
17 37 6 42 10 55 13 37 2 -15 8 -25 13 -22 5 4 9 -6 9 -20 0 -15 4 -24 10 -20
6 4 10 -20 10 -64 0 -68 13 -100 27 -65 6 16 7 16 14 -2 4 -11 9 21 10 76 2
77 3 85 8 45 l6 -50 13 79 c19 110 22 114 43 69 10 -21 18 -30 18 -20 1 22 13
22 40 -2 13 -11 29 -17 37 -14 8 3 14 -1 14 -8 1 -21 40 62 40 83 0 15 5 18
20 13 16 -5 20 -2 20 14 0 14 9 23 27 27 21 6 31 1 54 -24 15 -17 29 -28 32
-26 8 8 24 -20 41 -72 9 -28 23 -60 31 -70 13 -18 14 -18 9 6 -2 14 7 -4 22
-40 32 -81 38 -87 31 -30 l-6 45 20 -50 c25 -62 34 -70 25 -26 -6 34 -6 34 14
16 21 -19 21 -19 11 9 -14 35 -14 39 1 30 7 -5 9 -1 5 12 -34 107 -56 195 -55
220 1 17 -2 36 -6 43 -4 6 -3 11 3 11 5 0 12 -6 14 -12 3 -7 6 -3 6 10 1 27 9
28 27 5 12 -16 13 -15 4 10 -14 39 -13 44 5 21 8 -10 15 -15 15 -10 0 5 7 2
17 -5 18 -16 63 -20 63 -5 0 5 9 1 21 -10 15 -14 20 -15 17 -4 -2 8 2 14 8 13
6 -1 10 11 9 28 l-2 29 33 -25 34 -26 -4 28 c-1 16 -9 39 -15 52 -11 19 -11
22 0 15 8 -4 22 -9 31 -9 14 -1 17 3 12 17 -4 12 -1 18 8 16 8 -2 12 5 10 20
-3 19 0 22 22 18 25 -4 25 -4 10 20 -16 23 -15 24 2 17 17 -6 18 -5 4 12 -14
17 -13 18 2 13 23 -9 29 1 16 25 -9 17 -8 19 6 14 12 -5 15 -3 10 5 -5 8 -1 9
12 4 15 -6 17 -5 7 5 -10 10 -9 17 8 35 15 16 17 24 8 29 -8 6 -10 4 -4 -5 5
-9 4 -11 -4 -6 -6 4 -9 12 -5 17 3 5 10 7 15 3 6 -3 13 3 16 14 3 13 11 18 19
15 9 -3 12 0 9 9 -8 20 25 19 50 -1 11 -9 29 -23 40 -31 l20 -15 -20 24 c-14
17 -2 11 40 -18 200 -139 209 -144 100 -53 l-40 33 45 -27 45 -26 -40 42 c-22
24 -33 39 -25 35 12 -7 12 -5 -1 11 -9 10 -15 27 -14 36 2 9 -12 34 -31 56
-34 40 -36 56 -6 44 15 -5 16 -4 2 13 -14 17 -14 18 10 5 l25 -13 -24 27 c-28
30 -34 63 -14 71 8 2 11 10 7 17 -5 8 -2 9 12 4 10 -5 35 -12 54 -17 19 -6 47
-16 62 -25 17 -9 29 -11 33 -4 4 7 16 4 33 -8 45 -31 58 -35 29 -8 -15 14 -27
32 -25 40 2 7 -8 23 -22 35 -22 20 -22 21 -3 12 35 -17 38 -13 12 16 -13 14
-17 23 -9 19 8 -5 2 4 -15 18 l-30 27 32 -16 c46 -22 46 -22 49 -2 1 9 -7 22
-18 28 -11 6 -17 13 -14 16 8 8 -13 33 -27 33 -6 0 -2 -7 9 -15 10 -8 14 -15
8 -15 -18 0 -37 27 -24 35 6 3 7 12 3 18 -4 7 5 4 20 -5 15 -10 39 -25 55 -34
28 -16 21 -10 -33 30 -33 24 -9 30 28 7 24 -15 34 -17 34 -7 0 7 -7 13 -16 12
-9 -1 -16 6 -16 14 0 8 -8 14 -18 14 -9 -1 -14 2 -11 8 3 5 1 14 -5 21 -7 9
-4 17 12 27 19 12 21 11 9 -2 -10 -13 -8 -15 15 -12 15 1 34 -2 43 -8 8 -7 3
0 -11 14 -24 24 -28 47 -20 112 1 4 8 5 17 2 14 -5 15 -4 4 9 -15 19 -6 32 12
17 22 -17 91 -54 109 -57 9 -2 35 -15 58 -29 22 -14 45 -26 51 -26 6 0 30 -10
53 -21 36 -19 40 -19 27 -4 -14 17 -14 17 18 1 55 -28 47 -12 -13 28 -31 20
-53 41 -50 46 3 6 8 10 11 10 3 0 3 -4 0 -8 -2 -4 5 -9 16 -9 13 -1 -15 21
-63 52 -82 53 -105 76 -35 34 40 -24 50 -9 11 17 -14 9 -25 22 -25 29 0 6 -9
20 -20 30 -11 10 -17 21 -15 26 3 4 1 10 -5 14 -6 4 -7 12 -3 18 4 7 8 18 10
26 4 29 21 32 74 11 30 -12 64 -28 77 -36 12 -8 27 -12 32 -9 5 3 21 -2 35
-11 14 -9 25 -14 25 -10 0 3 -18 17 -39 32 -27 18 -38 31 -36 45 2 10 -1 21
-6 25 -6 4 -6 10 1 19 7 9 6 16 -5 25 -8 7 -15 17 -15 23 0 7 4 7 12 -1 21
-21 32 -13 13 8 -18 20 -18 21 -1 14 16 -6 17 -4 7 17 -10 20 -8 19 13 -6 24
-28 26 -29 21 -6 -2 12 -9 28 -14 35 -12 14 -10 86 2 86 5 0 5 5 2 10 -6 10 7
14 35 10 12 -1 13 1 3 11 -16 16 -17 33 -1 23 8 -5 9 0 6 14 -4 16 -2 22 9 22
10 0 13 6 9 17 -5 13 0 11 18 -6 15 -14 26 -21 26 -16 0 5 14 -4 32 -21 18
-16 26 -21 19 -11 -30 38 8 13 74 -50 38 -38 57 -53 41 -36 -16 18 -26 36 -23
40 4 3 0 17 -8 30 -9 13 -11 23 -6 23 6 0 1 17 -11 37 -12 20 -16 33 -9 29 10
-6 11 -1 6 25 -11 52 -9 75 8 99 15 21 16 20 88 -52 41 -40 77 -72 81 -71 4 2
37 -38 74 -87 37 -50 69 -88 72 -86 2 3 -14 39 -37 81 -60 111 -71 183 -36
230 15 19 16 19 32 -4 15 -23 17 -23 29 -6 13 17 14 17 23 -6 l9 -24 7 27 c6
24 9 26 22 13 8 -8 21 -15 29 -15 8 0 14 -9 14 -20 0 -11 5 -20 11 -20 5 0 7
6 4 13 -4 6 1 3 9 -7 9 -11 16 -34 17 -50 0 -30 0 -30 10 -7 5 14 9 32 8 40
-3 30 1 42 11 36 6 -4 10 9 11 32 l0 38 12 -34 c17 -50 34 -49 42 0 l7 42 18
-23 c10 -13 22 -20 29 -16 8 5 11 -10 11 -51 0 -37 3 -53 9 -44 7 12 10 11 12
-2 8 -32 41 11 59 75 9 34 23 64 30 66 8 3 10 0 6 -9 -4 -8 0 -5 8 5 9 11 16
25 16 30 0 6 4 5 9 -2 6 -11 11 -10 25 3 9 9 16 13 16 9 0 -4 9 1 20 11 12 11
20 13 20 6 0 -7 5 -9 10 -6 6 3 10 2 10 -4 0 -5 12 -5 30 2 20 8 33 8 38 2 4
-6 18 -12 32 -13 14 -2 29 -7 33 -11 8 -8 -40 -118 -119 -273 -24 -47 -29 -66
-19 -64 8 1 25 16 38 32 37 50 131 137 149 139 9 0 24 7 32 14 14 12 16 11 10
-3 -5 -12 -2 -15 12 -9 14 5 16 3 11 -11 -4 -11 -3 -15 4 -10 26 16 -7 -45
-60 -111 -31 -38 -71 -92 -90 -120 -18 -27 -46 -64 -62 -80 -33 -35 -40 -58
-9 -30 19 17 19 17 10 -14 l-9 -32 35 30 c38 34 57 41 31 13 -34 -37 -16 -32
31 8 50 45 110 81 97 59 -10 -16 12 -3 43 25 22 20 23 20 16 1 -7 -18 -5 -18
18 3 19 17 27 20 30 10 4 -10 12 -9 37 5 33 19 37 17 21 -13 -9 -16 -8 -18 6
-13 12 5 15 3 9 -6 -4 -7 5 -5 21 5 l29 18 -25 -28 -25 -29 32 17 c30 15 32
15 26 -1 -4 -11 -3 -14 5 -9 8 5 10 1 5 -10 -4 -12 -3 -15 5 -10 22 14 12 -18
-15 -46 -18 -19 -22 -28 -12 -28 8 0 -1 -14 -21 -31 -31 -27 -32 -29 -5 -12
55 36 60 35 20 -1 -22 -19 -43 -35 -47 -36 -4 0 -6 -9 -5 -19 0 -11 5 -17 9
-15 5 3 6 8 4 12 -2 4 8 8 22 9 l26 1 -24 -19 c-42 -32 2 -23 77 15 66 34 106
39 82 10 -10 -12 -8 -13 6 -8 11 5 21 1 27 -9 4 -9 15 -14 23 -11 21 8 38 -38
19 -49 -8 -5 -12 -12 -9 -17 3 -4 -17 -25 -45 -45 -28 -20 -48 -40 -46 -43 2
-4 -23 -25 -55 -47 -33 -22 -55 -41 -49 -43 6 -2 8 -8 5 -13 -4 -5 1 -6 10 -2
14 5 14 8 3 15 -10 7 -8 8 5 4 10 -3 29 1 43 10 13 9 24 14 24 11 0 -12 -100
-68 -111 -61 -7 4 -9 3 -5 -4 3 -6 -18 -26 -51 -46 -32 -20 -71 -48 -88 -62
-34 -29 -19 -24 40 16 22 15 56 35 75 44 l35 17 -30 -26 c-24 -22 -12 -18 61
19 95 48 110 54 98 34 -4 -6 9 -2 29 11 20 12 37 20 37 16 0 -4 17 3 38 15
l37 22 -20 -22 -20 -23 25 13 25 13 -19 -22 c-22 -25 -17 -26 29 -7 19 8 35
13 35 11 0 -2 -15 -18 -32 -36 l-33 -32 37 21 c34 19 63 26 97 23 11 -1 11 -4
1 -16 -11 -13 -10 -14 4 -9 12 5 16 0 16 -20 0 -16 6 -26 15 -26 19 0 20 -34
1 -50 -8 -6 -13 -17 -10 -24 3 -7 -8 -27 -25 -44 -31 -34 -29 -41 3 -17 36 28
41 15 6 -16 l-35 -31 48 26 c26 13 47 23 47 21 0 -2 -20 -18 -45 -36 -45 -33
-55 -50 -16 -29 50 26 14 -4 -71 -61 -51 -34 -97 -66 -103 -72 -14 -14 79 39
145 83 79 53 88 57 65 30 -19 -21 -18 -21 33 5 42 22 56 25 62 15 4 -7 15 -10
23 -7 10 4 18 -1 22 -13 3 -10 12 -17 18 -14 24 9 16 -41 -11 -70 l-27 -29 25
13 c24 13 24 12 10 -5 -14 -17 -14 -18 10 -6 14 7 -1 -12 -35 -45 -33 -32 -51
-51 -40 -43 19 13 19 13 2 -7 -9 -11 -15 -23 -12 -25 3 -3 -24 -27 -60 -53
-64 -47 -92 -76 -37 -39 15 11 38 20 51 21 23 1 23 1 5 -21 l-19 -22 25 21
c14 12 34 24 44 28 16 5 17 4 6 -9 -20 -24 -1 -18 39 13 33 25 83 52 98 52 3
0 -2 -9 -12 -20 -18 -20 -18 -21 -1 -14 16 6 17 4 7 -14 -11 -21 -11 -21 24
-6 21 9 35 10 35 4 0 -6 11 -3 24 5 13 9 37 18 52 21 16 3 33 9 38 14 5 5 14
3 21 -3 19 -18 5 -38 -126 -178 -65 -69 -116 -129 -113 -132 3 -3 0 -15 -6
-27 -10 -18 -10 -21 2 -14 7 4 -4 -11 -24 -34 -21 -23 -38 -44 -38 -47 0 -3
15 2 33 11 31 17 32 17 17 -2 -8 -10 0 -6 17 10 31 28 32 28 26 5 -6 -20 3
-16 54 28 33 29 66 59 73 68 7 8 44 43 83 78 45 40 65 53 57 37 -8 -14 -14
-37 -15 -52 -1 -26 0 -27 18 -10 17 15 17 13 -2 -21 -12 -21 -39 -62 -59 -90
-62 -84 -59 -86 14 -12 38 39 66 66 62 61 -16 -20 -7 -28 11 -12 26 24 37 3
16 -32 -9 -15 2 -7 24 18 l41 45 -34 -62 c-19 -35 -32 -63 -28 -63 3 0 28 24
55 53 26 28 45 43 41 33 -5 -14 -4 -17 5 -11 10 6 11 3 2 -14 -13 -24 -23 -28
-15 -6 10 24 -2 17 -22 -12 -15 -24 -15 -26 -1 -14 17 14 23 3 10 -15 -5 -5 1
0 12 11 11 11 28 32 37 45 14 20 16 21 11 5 -5 -18 -3 -17 22 5 l28 25 -12
-23 c-7 -13 -10 -26 -8 -29 3 -3 13 9 21 25 9 17 21 34 27 38 8 5 10 2 5 -7
-4 -8 1 -3 12 10 11 14 26 22 35 18 8 -3 20 0 26 6 9 9 11 8 6 -5 -5 -13 -2
-18 9 -18 17 0 17 -34 -1 -80 -6 -14 -8 -31 -5 -39 2 -8 1 -11 -4 -8 -5 3 -10
-10 -11 -28 -1 -28 2 -33 17 -30 19 4 19 2 -1 -47 -11 -28 -18 -53 -15 -55 2
-3 7 4 11 15 3 11 22 38 41 59 32 34 34 35 25 11 -14 -38 4 -45 19 -8 7 16 16
28 20 25 5 -3 11 1 14 7 3 7 4 0 2 -17 -1 -16 -1 -24 1 -17 3 7 9 10 13 7 5
-3 12 5 16 18 3 14 16 34 29 46 23 19 26 19 41 4 12 -13 15 -30 12 -74 -3 -37
0 -57 6 -56 6 1 10 -2 9 -8 0 -5 5 -16 13 -23 12 -11 14 -9 14 7 0 11 5 23 10
26 7 4 9 -2 4 -19 -5 -21 -3 -25 9 -20 16 6 26 33 28 74 0 23 1 23 9 5 5 -11
9 -15 9 -10 1 6 5 3 10 -4 8 -12 11 -9 16 12 4 15 11 27 15 27 4 0 12 17 18
37 9 33 10 35 11 11 1 -20 5 -26 16 -22 11 5 15 -1 16 -22 1 -25 3 -23 12 13
7 23 20 50 29 60 30 29 43 3 42 -85 -1 -42 0 -69 3 -59 2 9 9 15 14 12 5 -4 8
96 8 252 -1 164 -5 240 -9 208 -5 -27 -9 -71 -9 -97 -1 -64 -9 -82 -27 -63 -8
7 -14 19 -14 25 0 6 -4 8 -10 5 -6 -4 -10 5 -10 20 0 15 -4 24 -10 20 -5 -3
-11 4 -11 17 -1 20 -2 21 -6 3 -10 -39 -25 -41 -18 -2 6 29 4 37 -6 35 -8 -2
-17 -7 -21 -13 -4 -5 -8 13 -8 40 0 36 -3 46 -10 35 -6 -10 -10 -11 -10 -2 0
6 -4 12 -10 12 -5 0 -10 -7 -10 -15 0 -8 -4 -15 -10 -15 -5 0 -10 -6 -10 -14
0 -7 -7 -19 -15 -26 -8 -7 -15 -22 -16 -34 0 -11 -3 -15 -6 -8 -2 6 -10 9 -15
6 -6 -4 -8 -2 -4 4 3 6 2 14 -4 17 -6 4 -8 15 -5 26 4 11 0 26 -9 35 -12 11
-13 20 -6 34 7 13 7 21 -2 26 -7 5 -8 3 -3 -6 5 -8 4 -11 -3 -6 -7 4 -8 17 -2
36 11 37 -4 49 -22 18 -8 -13 -19 -32 -26 -43 -7 -11 -20 -34 -29 -52 -9 -18
-21 -30 -26 -26 -5 3 -6 -4 -2 -18 5 -19 4 -21 -5 -9 -9 13 -13 11 -31 -10
-19 -22 -21 -23 -19 -5 1 11 2 29 1 40 l-2 20 -15 -20 -16 -20 4 20 c2 12 -2
19 -10 17 -8 -1 -11 2 -6 9 4 6 7 19 8 28 1 9 12 36 25 61 20 37 21 42 6 30
-13 -11 -10 -1 9 33 30 51 31 76 1 30 -17 -25 -19 -26 -25 -8 -5 13 1 33 15
55 12 19 28 46 35 60 l13 25 -24 -20 c-16 -14 -20 -15 -10 -3 7 9 9 23 5 29
-4 7 -3 9 3 6 6 -4 17 1 24 11 13 16 13 16 -5 2 -18 -14 -19 -13 -13 5 4 11
-10 0 -30 -25 -73 -86 -84 -97 -76 -76 4 13 3 17 -5 12 -18 -11 -14 15 6 37
12 15 13 18 2 12 -14 -9 15 32 90 126 19 24 25 37 15 28 -42 -34 -49 -32 -17
6 17 22 32 45 32 53 0 25 -42 -9 -198 -159 -88 -85 -162 -149 -173 -149 -26 0
-24 13 7 49 25 31 21 43 -6 19 -8 -7 -4 0 10 16 14 16 19 26 13 22 -22 -13
-14 11 10 28 12 9 15 14 7 10 -8 -4 17 26 55 66 75 78 74 79 -25 12 l-65 -44
55 58 c30 31 78 80 105 107 41 41 44 46 15 26 -82 -58 -95 -60 -40 -7 31 29
73 68 95 86 22 18 34 30 28 27 -7 -3 -22 -8 -33 -10 -12 -2 -38 -17 -58 -33
-101 -77 -236 -165 -240 -154 -2 8 -14 5 -34 -10 -20 -14 -29 -16 -26 -7 7 22
-16 37 -48 32 l-29 -6 30 33 30 33 -28 -18 c-33 -21 -36 -19 -30 20 4 25 26
45 137 122 72 51 147 106 166 123 19 17 0 6 -43 -24 -43 -30 -84 -53 -92 -50
-7 3 -16 1 -20 -5 -4 -7 1 -9 12 -5 15 5 15 4 3 -5 -22 -15 -36 4 -19 25 16
21 12 19 -61 -28 -25 -16 -35 -21 -22 -10 12 11 19 22 15 25 -5 2 -3 3 3 1 6
-1 17 8 24 21 7 14 18 22 23 18 6 -3 7 -1 3 5 -4 7 -35 -7 -85 -38 -43 -27
-81 -47 -84 -44 -3 3 -18 -3 -33 -12 l-27 -18 6 26 c6 23 3 26 -26 32 -30 7
-31 8 -13 21 17 13 17 15 4 15 -9 0 -20 -4 -23 -10 -3 -5 -14 -10 -23 -10 -13
0 -13 2 4 15 11 8 14 15 7 15 -26 0 -12 39 24 71 l38 32 -35 -6 -35 -6 25 17
c27 19 92 82 84 82 -2 0 -15 -6 -27 -14 -31 -20 -71 -31 -63 -17 4 6 67 52
141 102 74 50 135 94 135 96 0 5 -5 2 -99 -59 -63 -41 -82 -49 -116 -48 -3 0
-19 -7 -35 -15 -48 -25 -35 -10 35 40 36 25 65 48 65 51 0 3 -12 -3 -27 -14
-47 -31 -103 -64 -103 -59 0 3 32 26 70 53 68 46 85 62 55 50 -23 -9 -18 0 13
20 15 10 35 17 45 17 9 -1 25 9 33 23 9 13 22 24 29 24 16 0 49 37 38 43 -5 3
-42 -16 -83 -42 -41 -27 -81 -46 -88 -43 -9 3 -4 11 17 24 17 11 31 22 31 25
0 3 -15 -4 -32 -16 -18 -11 -33 -25 -33 -31 0 -6 -16 -20 -35 -31 l-35 -21 30
27 c25 21 16 19 -50 -16 -44 -23 -100 -55 -125 -70 -44 -28 -71 -29 -49 -3 7
9 8 14 1 14 -6 0 -14 -4 -17 -10 -9 -15 -25 -12 -32 5 -3 9 3 25 13 37 17 19
17 21 2 15 -10 -4 -18 -2 -18 3 0 6 5 10 11 10 7 0 9 10 7 25 -4 21 4 33 51
71 31 25 67 60 81 77 l25 32 -30 -19 c-17 -10 -50 -33 -75 -50 -63 -45 -80
-53 -45 -21 18 16 23 24 13 21 -26 -8 -22 5 10 31 20 17 22 21 7 16 -18 -6
-19 -5 -5 12 14 17 14 17 -7 4 -13 -8 -18 -16 -12 -20 7 -4 5 -8 -4 -12 -7 -3
-19 -2 -26 2 -7 5 11 23 49 51 33 24 60 45 60 48 0 4 -59 -30 -102 -60 -29
-20 -42 -23 -33 -8 10 16 -8 11 -35 -10 -27 -21 -60 -26 -60 -9 0 5 -4 8 -9 5
-5 -3 -12 1 -15 10 -3 9 -11 12 -18 8 -10 -6 -11 -4 0 7 17 18 15 34 -3 19
-29 -24 -15 2 26 48 43 50 38 67 -10 33 -37 -27 -49 -27 -26 -1 24 27 29 65 6
49 -9 -6 8 11 37 38 28 27 52 56 52 64 0 8 5 20 12 27 7 7 8 12 4 12 -5 0 -2
8 5 17 8 10 -12 -5 -44 -32 -32 -28 -61 -50 -65 -50 -4 0 -23 -11 -42 -24
l-35 -24 39 40 c21 23 36 46 32 51 -3 6 60 73 140 151 80 78 143 141 139 141
-3 0 -44 -36 -90 -80 -73 -70 -105 -93 -105 -75 0 11 82 95 89 91 3 -3 33 20
66 49 33 30 56 54 52 55 -5 0 -33 -23 -63 -51 -64 -61 -72 -54 -12 11 24 25 8
11 -35 -30 -43 -41 -81 -74 -85 -72 -4 1 -7 -2 -7 -7 0 -5 -4 -13 -9 -18 -5
-4 -6 -3 -3 4 4 6 1 13 -5 16 -8 2 6 25 37 61 28 32 66 79 85 105 47 64 4 25
-67 -60 -31 -37 -63 -71 -72 -74 -9 -4 -1 9 17 27 47 49 39 59 -10 13 l-43
-40 44 47 c24 25 41 50 38 55 -4 5 0 10 7 10 9 0 12 -7 8 -16 -3 -9 -3 -14 0
-11 52 55 215 239 197 222 -14 -12 -28 -20 -31 -17 -8 9 -118 -121 -110 -130
4 -5 2 -5 -4 -2 -6 4 -21 -5 -34 -18 -13 -13 -26 -23 -30 -20 -3 2 29 40 72
84 43 45 78 85 78 90 0 6 -94 -84 -209 -200 -115 -115 -213 -209 -217 -209 -4
0 -31 -19 -58 -42 -28 -23 -45 -35 -38 -28 6 8 12 19 12 24 -1 6 -10 0 -21
-14 l-21 -25 2 30 c4 56 -3 63 -39 40 -9 -5 -7 3 6 21 11 16 26 40 33 54 l13
25 -28 -25 c-28 -25 -15 -4 83 135 31 44 94 155 88 155 -2 0 -29 -39 -60 -87
-30 -49 -70 -104 -86 -123 -31 -34 -31 -35 -16 -5 8 17 29 50 45 75 17 25 31
50 31 57 0 7 9 17 21 23 11 7 18 17 16 24 -3 7 4 23 15 37 11 13 16 18 12 10
-5 -9 -3 -12 5 -7 6 4 9 11 6 16 -3 5 4 29 15 52 l21 43 -21 -25 c-17 -21 -19
-22 -14 -5 4 13 -2 9 -15 -10 -12 -16 -19 -36 -16 -42 2 -7 -1 -12 -8 -10 -7
1 -11 -6 -11 -15 1 -10 -3 -15 -8 -12 -5 3 -8 0 -7 -7 3 -22 -12 -50 -24 -42
-5 3 -7 2 -4 -4 5 -7 -80 -133 -109 -162 -15 -15 16 44 62 119 53 87 107 190
100 190 -2 0 -23 -29 -46 -64 -23 -36 -52 -76 -65 -90 -13 -14 -40 -55 -60
-91 -20 -36 -39 -65 -41 -65 -3 0 0 9 6 21 7 11 10 22 8 24 -2 2 -27 -35 -56
-83 -60 -98 -94 -144 -90 -122 2 9 -3 14 -14 12 -17 -3 -59 31 -57 46 4 21 -3
24 -16 6 -12 -15 -16 -16 -24 -5 -5 7 -14 11 -20 7 -7 -5 -8 -1 -4 10 5 13 3
15 -7 9 -10 -6 -12 -4 -7 9 4 10 4 29 1 43 -6 23 -8 24 -19 10 -17 -23 -57
-11 -53 17 2 15 -2 20 -14 18 -11 -2 -18 3 -18 13 0 9 -4 14 -9 11 -5 -3 -8
39 -6 97 2 81 1 96 -8 75 -16 -41 -31 -34 -24 10 5 25 3 32 -3 22 -5 -8 -10
-26 -11 -40 -1 -20 -2 -21 -6 -5 -5 17 -7 15 -18 -10 l-13 -30 -3 50 c-1 33
-3 40 -6 20 -7 -61 -14 -80 -23 -66 -5 9 -10 1 -14 -25 -11 -66 -25 -76 -27
-19 -2 41 -3 43 -6 15 -6 -49 -23 -63 -23 -19 -1 29 -2 31 -11 16 -10 -18 -11
-18 -25 0 -7 10 -14 34 -15 53 -2 31 -3 29 -8 -13 -8 -64 -24 -63 -36 4 l-9
54 -6 -50 c-3 -27 -11 -59 -17 -70 -12 -20 -12 -20 -13 2 0 12 -3 23 -7 25
-10 4 -39 90 -48 140 -5 25 -11 35 -20 32 -8 -4 -15 4 -19 18 -2 13 -2 -2 0
-34z m21 -20 c-3 -8 -6 -5 -6 6 -1 11 2 17 5 13 3 -3 4 -12 1 -19z m1363 -141
c0 -2 -10 -12 -22 -23 l-23 -19 19 23 c18 21 26 27 26 19z m-74 -42 c-3 -18
-73 -92 -101 -107 -20 -11 -10 2 69 90 34 37 35 37 32 17z m-1936 -390 c13
-14 21 -25 18 -25 -2 0 -15 11 -28 25 -13 14 -21 25 -18 25 2 0 15 -11 28 -25z
m-475 -480 l30 -25 -37 21 c-21 11 -38 23 -38 25 0 10 17 2 45 -21z m2100 -25
c-3 -5 -11 -10 -16 -10 -6 0 -7 5 -4 10 3 6 11 10 16 10 6 0 7 -4 4 -10z
m-2117 -301 c-6 -4 -17 -5 -25 -2 -11 4 -10 8 4 18 13 10 20 10 25 2 4 -6 2
-15 -4 -18z m146 -228 c-2 -3 -12 3 -22 13 -16 17 -16 18 5 5 12 -7 20 -15 17
-18z m-587 -28 c-4 -3 1 -16 10 -27 18 -21 18 -21 -4 -2 -20 16 -23 36 -6 36
4 0 3 -3 0 -7z m3731 -243 c-22 -30 -35 -41 -22 -17 9 16 36 47 41 47 2 0 -6
-13 -19 -30z m-703 -170 c-3 -5 -16 -15 -28 -21 -19 -9 -19 -8 3 10 28 23 34
26 25 11z m-2920 -30 c10 -11 16 -20 13 -20 -3 0 -13 9 -23 20 -10 11 -16 20
-13 20 3 0 13 -9 23 -20z m-54 -102 c11 -21 11 -22 -4 -9 -10 7 -17 17 -17 22
0 15 9 10 21 -13z m-1771 -42 c0 -2 -8 -10 -17 -17 -16 -13 -17 -12 -4 4 13
16 21 21 21 13z m4982 -79 c-18 -18 -32 -38 -32 -43 0 -6 -15 -23 -32 -40 -18
-16 -25 -20 -15 -8 27 32 20 40 -11 13 -16 -13 3 6 41 44 70 68 107 94 49 34z
m-4165 -239 c-3 -8 -6 -5 -6 6 -1 11 2 17 5 13 3 -3 4 -12 1 -19z"/>
<path d="M6003 4418 c-6 -7 -22 -33 -37 -58 -24 -40 -24 -42 -4 -18 26 30 62
88 55 88 -3 0 -9 -6 -14 -12z"/>
<path d="M6387 4380 c-8 -11 -32 -40 -53 -63 -81 -89 -91 -108 -29 -58 10 9 1
-6 -20 -34 -26 -33 -30 -42 -13 -27 14 13 32 24 39 26 22 3 36 14 71 58 l33
43 -30 -21 c-71 -49 -72 -42 -7 29 26 28 39 46 30 38 -20 -15 -25 -2 -6 17 7
7 9 12 6 12 -4 0 -13 -9 -21 -20z"/>
<path d="M3800 4366 c0 -2 8 -10 18 -17 15 -13 16 -12 3 4 -13 16 -21 21 -21
13z"/>
<path d="M3879 4359 c6 -9 9 -18 6 -20 -2 -3 28 -38 67 -79 39 -41 63 -66 54
-54 -9 11 -14 23 -12 25 2 2 -25 36 -61 74 -36 39 -61 63 -54 54z"/>
<path d="M11515 4328 l-40 -43 43 40 c23 21 42 40 42 42 0 8 -9 0 -45 -39z"/>
<path d="M4010 4280 c29 -33 54 -60 57 -60 3 0 -18 27 -47 60 -29 33 -54 60
-57 60 -3 0 18 -27 47 -60z"/>
<path d="M11525 4281 c-34 -20 -137 -133 -129 -140 3 -3 42 32 87 77 45 45 80
82 77 82 -3 0 -19 -8 -35 -19z"/>
<path d="M4590 4285 c0 -5 5 -17 10 -25 5 -8 10 -10 10 -5 0 6 -5 17 -10 25
-5 8 -10 11 -10 5z"/>
<path d="M6345 4224 c-24 -26 -42 -50 -40 -55 3 -4 0 -11 -6 -15 -8 -5 -9 -3
-4 7 4 8 -5 2 -22 -14 -26 -25 -40 -57 -24 -57 10 0 113 110 139 148 33 47 8
39 -43 -14z m-55 -77 c0 -2 -10 -12 -22 -23 l-23 -19 19 23 c18 21 26 27 26
19z"/>
<path d="M6224 4228 l-19 -23 23 19 c12 11 22 21 22 23 0 8 -8 2 -26 -19z"/>
<path d="M4610 4235 c0 -5 5 -17 10 -25 5 -8 10 -10 10 -5 0 6 -5 17 -10 25
-5 8 -10 11 -10 5z"/>
<path d="M4164 4167 c27 -31 51 -57 53 -57 7 0 -76 98 -90 107 -7 4 10 -19 37
-50z"/>
<path d="M6289 4193 l-24 -28 28 24 c25 23 32 31 24 31 -2 0 -14 -12 -28 -27z"/>
<path d="M6181 4176 c-17 -19 -20 -26 -9 -32 7 -4 10 -3 5 1 -4 5 3 19 15 32
12 13 19 23 16 23 -2 0 -15 -11 -27 -24z"/>
<path d="M4075 4140 c10 -11 20 -20 23 -20 3 0 -3 9 -13 20 -10 11 -20 20 -23
20 -3 0 3 -9 13 -20z"/>
<path d="M5879 4103 c-13 -16 -12 -17 4 -4 16 13 21 21 13 21 -2 0 -10 -8 -17
-17z"/>
<path d="M4270 4086 c0 -2 8 -10 18 -17 15 -13 16 -12 3 4 -13 16 -21 21 -21
13z"/>
<path d="M11365 3988 l-50 -53 53 50 c28 27 52 51 52 52 0 8 -9 -1 -55 -49z"/>
<path d="M3830 3936 c0 -2 8 -10 18 -17 15 -13 16 -12 3 4 -13 16 -21 21 -21
13z"/>
<path d="M11269 3863 l-24 -28 28 24 c15 14 27 26 27 28 0 8 -8 1 -31 -24z"/>
<path d="M3985 3670 c3 -5 11 -10 16 -10 6 0 7 5 4 10 -3 6 -11 10 -16 10 -6
0 -7 -4 -4 -10z"/>
<path d="M5296 3595 c-9 -26 -7 -32 5 -12 6 10 9 21 6 23 -2 3 -7 -2 -11 -11z"/>
<path d="M9040 3561 c24 -20 40 -26 40 -16 0 2 -15 12 -32 20 l-33 16 25 -20z"/>
<path d="M11794 3415 c-10 -8 -14 -15 -8 -15 6 0 17 7 24 15 16 19 9 19 -16 0z"/>
<path d="M5859 3393 c-13 -16 -12 -17 4 -4 16 13 21 21 13 21 -2 0 -10 -8 -17
-17z"/>
<path d="M4600 3226 c0 -2 8 -10 18 -17 15 -13 16 -12 3 4 -13 16 -21 21 -21
13z"/>
<path d="M11935 3071 c-3 -5 -2 -12 3 -15 5 -3 9 1 9 9 0 17 -3 19 -12 6z"/>
<path d="M8750 3017 c0 -6 78 -57 87 -57 4 0 3 4 -2 8 -16 14 -85 54 -85 49z"/>
<path d="M12471 2916 c-25 -25 -37 -44 -28 -42 19 2 59 37 52 44 -3 3 2 14 12
24 32 36 6 17 -36 -26z"/>
<path d="M12239 2893 l-24 -28 28 24 c15 14 27 26 27 28 0 8 -8 1 -31 -24z"/>
<path d="M12454 2848 l-29 -33 33 29 c30 28 37 36 29 36 -2 0 -16 -15 -33 -32z"/>
<path d="M12394 2778 l-19 -23 23 19 c21 18 27 26 19 26 -2 0 -12 -10 -23 -22z"/>
<path d="M3155 2580 c10 -11 20 -20 23 -20 3 0 -3 9 -13 20 -10 11 -20 20 -23
20 -3 0 3 -9 13 -20z"/>
<path d="M2900 2345 c0 -5 5 -17 10 -25 5 -8 10 -10 10 -5 0 6 -5 17 -10 25
-5 8 -10 11 -10 5z"/>
<path d="M2481 2204 c0 -11 3 -14 6 -6 3 7 2 16 -1 19 -3 4 -6 -2 -5 -13z"/>
<path d="M2401 2134 c0 -11 3 -14 6 -6 3 7 2 16 -1 19 -3 4 -6 -2 -5 -13z"/>
<path d="M8490 2142 c0 -5 10 -17 22 -28 l21 -19 -18 28 c-18 28 -25 33 -25
19z"/>
<path d="M1817 2113 c-4 -3 -7 -11 -7 -17 0 -6 5 -5 12 2 6 6 9 14 7 17 -3 3
-9 2 -12 -2z"/>
<path d="M6816 2098 c3 -4 9 -8 15 -8 5 0 9 4 9 8 0 5 -7 9 -15 9 -8 0 -12 -4
-9 -9z"/>
<path d="M11927 2009 c-10 -13 -16 -16 -19 -8 -2 7 -20 -10 -39 -37 -41 -56
-61 -93 -29 -51 12 15 25 25 30 22 7 -4 53 47 74 83 12 20 -2 14 -17 -9z m-27
-38 c-5 -11 -15 -23 -22 -27 -7 -5 -8 -2 -3 7 21 37 44 55 25 20z"/>
<path d="M11524 1943 c-36 -46 -36 -47 -5 -18 30 28 57 65 48 65 -3 0 -22 -21
-43 -47z"/>
<path d="M2451 1884 c0 -11 3 -14 6 -6 3 7 2 16 -1 19 -3 4 -6 -2 -5 -13z"/>
<path d="M2391 1854 c0 -11 3 -14 6 -6 3 7 2 16 -1 19 -3 4 -6 -2 -5 -13z"/>
<path d="M2291 1844 c0 -11 3 -14 6 -6 3 7 2 16 -1 19 -3 4 -6 -2 -5 -13z"/>
<path d="M8270 1601 c0 -6 4 -13 10 -16 6 -3 7 1 4 9 -7 18 -14 21 -14 7z"/>
</g>
</svg>
